# xmcd
#
# Track frame offsets:
#	150
#	45606
#	57374
#	161135
#	189068
#	221421
#
# Disc length: 3212 seconds
#
# Revision: 1
# Processed by: cddbd v1.5.2PL0 Copyright (c) Steve Scherf et al.
# Submitted via: audiograbber 1.83.01
#
DISCID=4b0c8a06
DTITLE=Grateful Dead - 72-06-17A Hollywood Bowl, Hollywood CA
DYEAR=1900
DGENRE=
TTITLE0=Truckin'
TTITLE1=Drums
TTITLE2=The Other One
TTITLE3=Ramble On Rose
TTITLE4=Sugar Magnolia
TTITLE5=Not Fade Away
EXTD=
EXTT0=
EXTT1=
EXTT2=
EXTT3=
EXTT4=
EXTT5=
PLAYORDER=
